<?xml version="1.0" encoding="utf-8"?>
<!-- Generator: Adobe Illustrator 23.0.1, SVG Export Plug-In . SVG Version: 6.00 Build 0)  -->
<svg version="1.1" id="Layer_1" xmlns="http://www.w3.org/2000/svg" xmlns:xlink="http://www.w3.org/1999/xlink" x="0px" y="0px"
	 viewBox="0 0 510.4 510.4" style="enable-background:new 0 0 510.4 510.4;" xml:space="preserve">
<style type="text/css">
	.st0{fill:#B1C6E0;}
	.st1{fill:none;stroke:#6C85A6;stroke-width:16;stroke-linecap:round;stroke-miterlimit:10;}
	.st2{fill:none;stroke:#6C85A6;stroke-width:16;stroke-linecap:round;stroke-linejoin:round;stroke-miterlimit:10;}
	.st3{fill:none;stroke:#000000;stroke-width:16;stroke-miterlimit:10;}
	.st4{fill:none;stroke:#000000;stroke-width:16;stroke-linecap:round;stroke-linejoin:round;stroke-miterlimit:10;}
	.st5{fill:none;stroke:#000000;stroke-width:16;stroke-linecap:round;stroke-miterlimit:10;}
</style>
<g>
	<g>
		<g>
			<g>
				<path class="st0" d="M436.2,74.2c-48.4-48.4-112.6-75-181-75s-132.7,26.6-181,75c-48.4,48.4-75,112.6-75,181s26.6,132.7,75,181
					c48.4,48.4,112.6,75,181,75s132.7-26.6,181-75c48.4-48.4,75-112.6,75-181S484.6,122.5,436.2,74.2z M255.2,495
					C123,495,15.4,387.4,15.4,255.2S123,15.4,255.2,15.4S495,123,495,255.2S387.4,495,255.2,495z"/>
			</g>
		</g>
	</g>
	<g>
		<g>
			<g>
				<path class="st0" d="M179.7,204h-53.9c-4.5,0-8.1,3.6-8.1,8.1v161.7c0,4.5,3.6,8.1,8.1,8.1h53.9c4.5,0,8.1-3.6,8.1-8.1V212.1
					C187.8,207.6,184.2,204,179.7,204z M171.7,365.7h-37.7V220.2h37.7V365.7z"/>
			</g>
		</g>
	</g>
	<g>
		<g>
			<g>
				<path class="st0" d="M152.3,107c-22.3,0-40.4,18.1-40.4,40.4s18.1,40.4,40.4,40.4s40.4-18.1,40.4-40.4S174.6,107,152.3,107z
					 M152.3,171.7c-13.4,0-24.3-10.9-24.3-24.3c0-13.4,10.9-24.3,24.3-24.3c13.4,0,24.3,10.9,24.3,24.3
					C176.6,160.8,165.7,171.7,152.3,171.7z"/>
			</g>
		</g>
	</g>
	<g>
		<g>
			<g>
				<path class="st0" d="M330.7,204c-16.1,0-31.9,4.2-45.8,11.9v-3.8c0-4.5-3.6-8.1-8.1-8.1h-43.1c-4.5,0-8.1,3.6-8.1,8.1v161.7
					c0,4.5,3.6,8.1,8.1,8.1h53.9c4.5,0,8.1-3.6,8.1-8.1v-58c0-19,4.2-41.7,24.3-41.7c15,0,21.1,12.6,23.2,26.9c0.6,3.9,4,6.8,8,6.8
					c5,0,8.7-4.5,8-9.4c-4.1-26-17.8-40.5-39.2-40.5c-25.7,0-40.4,21.1-40.4,57.8v50h-37.7V220.2h26.9v10.6c0,2.5,1,5,3,6.5
					c3,2.4,7.2,2.3,10.1,0c14-11.2,30.9-17.2,48.8-17.2c46.5,0,67.4,39.2,67.4,78.1v67.4h-37.7v-26.6c0-4.5-3.6-8.1-8.1-8.1h0
					c-4.5,0-8.1,3.6-8.1,8.1v34.7c0,4.5,3.6,8.1,8.1,8.1h53.9c4.5,0,8.1-3.6,8.1-8.1v-75.5C414.2,242.8,379.8,204,330.7,204z"/>
			</g>
		</g>
	</g>
</g>
</svg>
