<?xml version="1.0" encoding="utf-8"?>
<!-- Generator: Adobe Illustrator 23.0.1, SVG Export Plug-In . SVG Version: 6.00 Build 0)  -->
<svg version="1.1" id="Layer_1" xmlns="http://www.w3.org/2000/svg" xmlns:xlink="http://www.w3.org/1999/xlink" x="0px" y="0px"
	 viewBox="0 0 510.4 510.4" style="enable-background:new 0 0 510.4 510.4;" xml:space="preserve">
<style type="text/css">
	.st0{fill:#B1C6E0;}
	.st1{fill:none;stroke:#6C85A6;stroke-width:16;stroke-linecap:round;stroke-miterlimit:10;}
	.st2{fill:none;stroke:#6C85A6;stroke-width:16;stroke-linecap:round;stroke-linejoin:round;stroke-miterlimit:10;}
	.st3{fill:none;stroke:#000000;stroke-width:16;stroke-miterlimit:10;}
	.st4{fill:none;stroke:#000000;stroke-width:16;stroke-linecap:round;stroke-linejoin:round;stroke-miterlimit:10;}
	.st5{fill:none;stroke:#000000;stroke-width:16;stroke-linecap:round;stroke-miterlimit:10;}
</style>
<g>
	<g>
		<path class="st0" d="M255.2,510.4c-68.2,0-132.3-26.5-180.5-74.7C26.5,387.5,0,323.4,0,255.2S26.5,122.9,74.7,74.7
			C122.9,26.5,187,0,255.2,0s132.3,26.5,180.5,74.7c48.2,48.2,74.7,112.3,74.7,180.5s-26.5,132.3-74.7,180.5
			C387.5,483.9,323.4,510.4,255.2,510.4z M255.2,16c-63.9,0-124,24.9-169.1,70.1C40.9,131.2,16,191.3,16,255.2s24.9,124,70.1,169.1
			c45.2,45.2,105.2,70.1,169.1,70.1s124-24.9,169.1-70.1c45.2-45.2,70.1-105.2,70.1-169.1s-24.9-124-70.1-169.1
			C379.2,40.9,319.1,16,255.2,16z"/>
	</g>
</g>
<g>
	<path class="st0" d="M172,460.3c-3.6,0-7.3-0.7-10.9-2.1c-13.8-5.5-21.3-21.1-17.1-35.4l0.1-0.4l35.2-97.8
		c-6-12.4-24.6-57.1-8.6-108.5c8.3-26.4,20-44.5,35-53.8c13.7-8.5,26.5-7.2,32.9-5.8c11.9,2.7,38.6,14.6,29.1,65.1
		c-5.4,29-18.9,75.2-23.5,90.7c6.7,4.8,21.6,13.7,39.9,11.9c18.9-1.8,36.9-14.2,53.5-36.9c21.4-29.2,28.8-60.2,21.5-89.8
		c-6.8-27.6-26.8-52.6-52.3-65.1c-23-11.3-52.2-15-77.9-9.8c-21.8,4.3-52.2,17-73.7,52.9c-31.7,52.8-2.4,101.2-2.1,101.6l0.1,0.2
		c7.7,13.1,4.8,30.2-6.5,38.8c-6.2,4.7-14.5,6.5-22.8,4.8c-8.8-1.8-16.5-7.3-21-15.2l-0.1-0.2c-8.9-16.5-28.3-60.7-15.5-115.1
		c6.4-27.4,18.8-51,37.9-72.3c33.4-37.3,80.5-56.8,132.4-54.9c48.5,1.8,97.8,23,120.1,51.6c5.1,5.7,9.9,11.9,14.2,18.3
		c2.5,3.7,1.5,8.6-2.2,11.1c-3.7,2.5-8.6,1.5-11.1-2.2c-4-5.9-8.4-11.6-13-16.8l-0.4-0.4c-16-20.6-56.6-43.7-108.2-45.6
		c-33.3-1.2-81.2,6.4-119.9,49.6c-17.2,19.2-28.4,40.5-34.2,65.3c-11.8,50.4,7.6,92.1,14,103.8c2.2,3.8,5.9,6.5,10.2,7.4
		c3.7,0.8,7.3,0.1,9.9-1.9c4.3-3.3,6.4-11,2.4-17.9c-1-1.6-9.1-15.3-13-36c-3.7-19.9-4.2-50.3,15-82.2
		c24.5-40.9,59.4-55.4,84.3-60.3c29.6-5.9,61.7-1.8,88.1,11.1c30,14.7,52.8,43,60.8,75.6c5.9,23.9,6.5,61.2-24.1,103.1
		c-19.5,26.6-41.4,41.3-65.1,43.4c-2.1,0.2-4.1,0.3-6.1,0.3c-28.8,0-48.9-18.6-49.8-19.5l-3.6-3.4l1.4-4.7
		c0.2-0.6,18.3-60.5,24.6-94.2c3.5-18.7,3.4-41.9-17-46.6c-9.5-2.2-33.2-1.8-49,48.7c-16.4,52.6,8.7,98.8,9,99.3l1.8,3.2l-1.2,3.4
		l-36.3,100.9c-1.8,6.4,1.6,13.4,7.8,15.8c6,2.4,13.1-0.1,16.3-5.7l33.3-92l8.4,5.2c0.2,0.1,21.3,12.9,49.8,14.4
		c37.6,1.9,70-15.9,96.5-53c41.1-57.6,35.3-107.6,23.3-139.4c-1.6-4.1,0.5-8.8,4.7-10.3s8.7,0.5,10.3,4.7
		c13.4,35.4,19.9,91-25.3,154.3c-37.4,52.5-81,61.4-111.1,59.7c-21.1-1.2-38.3-7.7-48-12.2l-27.2,75.3l-0.3,0.5
		C192.6,454.6,182.5,460.3,172,460.3z"/>
</g>
</svg>
