<svg xmlns="http://www.w3.org/2000/svg" viewBox="0 0 305.3 407"><defs><style>.cls-1{fill:#6986b1;}</style></defs><title>logo-e</title><g id="a"><path class="cls-1" d="M154.67.28c27.18.84,48.53,23.66,48.67,50.84l.25,51.15h0c0,3,.26,8.84.26,8.84v92.82h47.29a54.12,54.12,0,0,0,54.12-54.12v-38.7h-.1c-.12-5.11-.11-6.8-.18-10.22h0A101.42,101.42,0,0,0,203.08,0L152.8.26C153.43.25,154.05.26,154.67.28Z"/><path class="cls-1" d="M298.57,298v2.81a98.9,98.9,0,0,1-28.12,69.08,96.93,96.93,0,0,1-69.41,29h-.51A97,97,0,0,1,131,369.33a98.91,98.91,0,0,1-27.55-69.5V297h-.1l-1-193.9h0l.27-52c.13-27,21.2-49.74,48.18-50.84.62,0,1.24,0,1.86,0L102.44.51V.86A101.41,101.41,0,0,0,1,101.75c0,.63,0,1.26,0,1.89H1L2,306.11A101.41,101.41,0,0,0,104,407h0v-.26h90.9a85.23,85.23,0,0,1-9.13-1.18,107.86,107.86,0,0,0,14.76,1.1H201A104.61,104.61,0,0,0,276,375.32a106.75,106.75,0,0,0,30.33-74.55v-2.72Z"/><path class="cls-1" d="M204.4,406.74h-9.55A54,54,0,0,0,204.4,406.74Z"/><path class="cls-1" d="M153.58,204.35l50.27-.26L204,162A51.8,51.8,0,0,1,153.58,204.35Z"/></g></svg>