<svg xmlns="http://www.w3.org/2000/svg" viewBox="0 0 1982 409.91"><defs><style>.cls-1{fill:#6986b1;}</style></defs><title>logo-e</title><g id="a"><path class="cls-1" d="M153.67,1.31c27.18.84,48.53,23.66,48.67,50.84l.25,51.15h0c0,3,.26,8.85.26,8.85V205h47.29a54.12,54.12,0,0,0,54.12-54.11v-38.7h-.1c-.12-5.12-.11-6.8-.18-10.22h0A101.42,101.42,0,0,0,202.08,1l-50.28.26C152.43,1.29,153.05,1.29,153.67,1.31Z"/><path class="cls-1" d="M297.57,299.05v2.8a98.9,98.9,0,0,1-28.12,69.08A96.93,96.93,0,0,1,200,400h-.51A96.91,96.91,0,0,1,130,370.37a99,99,0,0,1-27.55-69.5v-2.81h-.1l-1-193.9h0l.27-52c.13-27,21.2-49.74,48.18-50.84.62,0,1.24,0,1.86,0l-50.27.25v.35A101.41,101.41,0,0,0,0,102.78c0,.63,0,1.26,0,1.89H0L1,307.14A101.4,101.4,0,0,0,103,408h0v-.25h90.9a85.5,85.5,0,0,1-9.13-1.19,106.3,106.3,0,0,0,14.76,1.1H200A104.61,104.61,0,0,0,275,376.35a106.73,106.73,0,0,0,30.33-74.54v-2.72Z"/><path class="cls-1" d="M203.4,407.78h-9.55A55.23,55.23,0,0,0,203.4,407.78Z"/><path class="cls-1" d="M152.58,205.38l50.27-.25L203,163A51.8,51.8,0,0,1,152.58,205.38Z"/><path class="cls-1" d="M456.38.25l-49-.25-2.06,407.6,54.33.27a47.66,47.66,0,0,0,47.89-47.4l1.55-307A52.94,52.94,0,0,0,456.38.25Z"/><path class="cls-1" d="M407.17.26,356.62,0A51.43,51.43,0,0,1,407,42.32Z"/><path class="cls-1" d="M712.42,94.44a51,51,0,0,1,73.29-37C802.65,66.05,813,83.79,813,102.79l-.46,306.28h50a52,52,0,0,0,52-52V121.69c0-4.35.19-8.69.4-13,.08-1.8.12-3.62.11-5.44A102,102,0,0,0,813.85,1.77H812.5A102,102,0,0,0,712.11,91.31,102,102,0,0,0,611.62.9h-1.35A102,102,0,0,0,509.12,102.35l.35-.51a51,51,0,0,1,72.41-46c17.82,8.26,28.88,26.5,28.85,46.14l-.46,306.24h50a52,52,0,0,0,52-52V113.16"/><path class="cls-1" d="M1065.76.72l-49-.24-2.07,407.59,54.33.28a47.65,47.65,0,0,0,47.89-47.41l1.56-307A53,53,0,0,0,1065.76.72Z"/><path class="cls-1" d="M1016.56.73,966,.48a51.41,51.41,0,0,1,50.34,42.32Z"/><path class="cls-1" d="M1321.8,94.91a51,51,0,0,1,73.29-37c16.94,8.59,27.28,26.34,27.25,45.33l-.46,306.28h50a52,52,0,0,0,52-52V122.16c0-4.34.19-8.68.4-13,.09-1.8.13-3.61.12-5.44A102,102,0,0,0,1423.23,2.24h-1.35a102,102,0,0,0-100.39,89.54A102,102,0,0,0,1221,1.38h-1.35a102,102,0,0,0-101.14,101.45l.34-.52a51,51,0,0,1,72.42-46c17.81,8.27,28.87,26.5,28.84,46.14l-.46,306.25h50a52,52,0,0,0,52-52v-243"/><path class="cls-1" d="M1982,409.65l-50.66.26a102.17,102.17,0,0,1-102.68-101.65h0a51.08,51.08,0,1,1,102.14-1.39h0l.26,51.85c.11,21.85,13.88,41.61,34.64,48.4A51.52,51.52,0,0,0,1982,409.65Z"/><path class="cls-1" d="M1830,.62l-.52,102.17-1.31,257.89a48.64,48.64,0,0,0,48.38,48.87l53.55.27,1.55-306.51A102.18,102.18,0,0,0,1830,.62Z"/><path class="cls-1" d="M1829.82,42.77,1830,.62,1779.38.37A51.51,51.51,0,0,1,1829.82,42.77Z"/><path class="cls-1" d="M1777.65.36,1727,.11a102.17,102.17,0,0,0-102.69,101.65h0a51.08,51.08,0,1,0,102.15,1.38h0l.26-51.84c.11-21.85,13.87-41.61,34.64-48.4A51.5,51.5,0,0,1,1777.65.36Z"/><path class="cls-1" d="M1778.44.36l50.65-.25a102.17,102.17,0,0,1,102.69,101.65h0a51.08,51.08,0,1,1-102.14,1.38h0l-.26-51.84c-.11-21.85-13.88-41.61-34.64-48.4A51.5,51.5,0,0,0,1778.44.36Z"/><path class="cls-1" d="M1829,307.48l-.35.52a50.76,50.76,0,1,1-101.51-.24l.26-51.77c.11-21.85,13.88-41.61,34.64-48.4a51.22,51.22,0,0,1,16.27-2.54l-50.65-.26h0a102.17,102.17,0,0,0-1.35,204.33h.32A102.16,102.16,0,0,0,1829,307.48Z"/></g></svg>